<?xml version="1.0" encoding="UTF-8"?>
<svg width="32px" height="32px" viewBox="0 0 32 32" version="1.1" xmlns="http://www.w3.org/2000/svg" xmlns:xlink="http://www.w3.org/1999/xlink">
    <!-- Generator: Sketch 42 (36781) - http://www.bohemiancoding.com/sketch -->
    <title>Artboard</title>
    <desc>Created with Sketch.</desc>
    <defs></defs>
    <g id="Inspiration" stroke="none" stroke-width="1" fill="none" fill-rule="evenodd">
        <g id="Artboard" fill="#000000">
            <path d="M11.4454051,11.4173814 C11.3226592,11.4173814 11.2612872,11.3586817 11.2612872,11.2412807 C11.2612872,11.1719074 11.3013124,11.115876 11.3813641,11.0731847 L14.7275056,9.46426529 C14.8662618,9.4109012 14.9556514,9.43224652 14.9956772,9.52830189 C15.035703,9.62435726 14.997012,9.71240669 14.8796029,9.79245283 C14.5113654,10.0806189 14.2738825,10.470171 14.167147,10.9611206 C14.0604115,11.4520703 14.0070445,12.031062 14.0070445,12.6981132 L14.0070445,18.2372784 C14.0070445,19.3632608 14.4313118,19.7234631 15.2798591,19.3178959 C15.423952,19.2378498 15.5200126,19.2471884 15.5680435,19.3459119 C15.6160745,19.4446355 15.5947277,19.5286827 15.5040026,19.598056 L13.8309318,21.1189251 C13.7241963,21.1936348 13.6014523,21.212312 13.4626961,21.1749571 C12.6621798,20.9454915 12.1925506,20.3504908 12.0537944,19.3899371 C12.0431209,19.3419094 12.0137691,19.3072233 11.9657381,19.2858776 C11.9177071,19.2698684 11.8750135,19.2805411 11.8376561,19.3178959 C11.7095735,19.4459698 11.5748219,19.5900507 11.4333974,19.7501429 C11.2919728,19.9102352 10.9397509,20.2224105 10.3767211,20.6866781 C9.81369128,21.1509457 9.30670521,21.3310468 8.85574768,21.2269868 C8.40479015,21.1229269 8.04322903,20.9588347 7.77105347,20.7347055 C7.34411143,20.3878389 6.95186431,20.048982 6.59430035,19.7181246 C6.23673639,19.3872673 5.79379067,19.2885452 5.26544989,19.4219554 C5.21208213,19.4379646 5.126695,19.4673144 5.00928594,19.5100057 C4.89187688,19.552697 4.8091581,19.5233472 4.76112712,19.4219554 C4.71309614,19.3205636 4.79314657,19.2085007 5.00128082,19.0857633 C5.41754931,18.80827 5.82580652,18.5187741 6.22606468,18.217267 C6.62632285,17.9157599 6.99989153,17.5809052 7.34678194,17.212693 C7.81641819,16.7164069 8.19132105,16.1267425 8.47150176,15.4436821 C8.75168248,14.7606217 8.82239369,14.0215401 8.68363753,13.2264151 C8.55021814,12.4633086 8.17131276,11.80694 7.54691002,11.2572899 C6.92250728,10.7076397 6.17803826,10.4968547 5.31348063,10.6249285 C4.7531192,10.7103111 4.34219364,10.9411073 4.08069164,11.3173242 C3.81918964,11.693541 3.66976217,12.0524092 3.63240474,12.3939394 C3.57370021,12.8742162 3.68310247,13.2490934 3.96061479,13.518582 C4.23812712,13.7880707 4.5609972,13.9494947 4.92923471,14.0028588 C5.78845557,14.1576146 6.36481868,14.5244873 6.65834134,15.1034877 C6.95186399,15.6824881 6.73572783,16.2975001 6.00992635,16.948542 C5.91386439,17.0285882 5.82847727,17.0405949 5.75376241,16.9845626 C5.67904755,16.9285303 5.67104251,16.8471513 5.72974704,16.7404231 C5.95922839,16.2654827 5.78311744,15.9453029 5.2014089,15.7798742 C4.57700616,15.6037727 4.05401001,15.2996019 3.63240474,14.8673528 C3.21079947,14.4351036 3,13.8507756 3,13.1143511 C3,12.0897605 3.40292051,11.207932 4.20877362,10.4688393 C5.01462672,9.72974664 5.93520669,9.35753767 6.97054115,9.35220126 C8.17665242,9.35220126 9.09589821,9.71240349 9.72830612,10.4328188 C10.360714,11.153234 10.6822499,11.9696924 10.6929235,12.8822184 C10.703597,13.9441639 10.3420359,14.8780215 9.60822927,15.6838193 C8.87442263,16.4896171 8.16330796,17.1646628 7.47486391,17.7089766 C7.43216971,17.7356586 7.41615962,17.7756811 7.42683317,17.8290452 C7.43216995,17.8770729 7.45885343,17.9090908 7.50688441,17.9251001 C7.87512192,18.0798559 8.20599704,18.2652934 8.49951969,18.481418 C8.79304235,18.6975425 9.04119869,18.9096616 9.24399616,19.1177816 C9.57487624,19.4646482 9.8884071,19.6634265 10.1845981,19.7141224 C10.4807892,19.7648182 10.8610287,19.6220714 11.3253282,19.2858776 C11.4427373,19.2004951 11.5521395,19.1031071 11.6535383,18.9937107 C11.754937,18.8843143 11.8563342,18.765581 11.9577329,18.6375071 C11.9790801,18.6108251 11.9897534,18.5814753 11.9897534,18.5494568 C11.9684063,17.5248662 11.9604013,16.4962888 11.9657381,15.4636935 C11.9710748,14.4310983 11.9737432,13.3971845 11.9737432,12.3619211 C11.9737432,12.1591375 11.9497281,11.9510207 11.9016971,11.7375643 C11.8536661,11.5241079 11.7015703,11.4173814 11.4454051,11.4173814 Z M26.8472622,16.4522584 C26.7992313,16.5002861 26.7485327,16.5242996 26.6951649,16.5242996 C26.6151133,16.5242996 26.5417337,16.4749386 26.475024,16.376215 C26.4083143,16.2774914 26.3509448,16.2014487 26.3029139,16.1480846 C25.8546247,15.6998262 25.4677143,15.6091086 25.142171,15.8759291 C25.0781297,15.9186204 25.0674563,15.97732 25.1101505,16.0520297 C25.3342951,16.3988963 25.5210794,16.7297488 25.6705091,17.0445969 C25.9907157,17.7436665 26.1041204,18.448062 26.0107269,19.1578045 C25.9173333,19.8675469 25.6758478,20.5052383 25.2862632,21.0708977 C24.8966786,21.636557 24.3910267,22.0994836 23.7692923,22.4596913 C23.147558,22.8198989 22.4684635,23 21.7319885,23 C20.7873792,23 19.9735331,22.7772083 19.2904259,22.3316181 C18.6073186,21.8860279 18.2364183,21.2470024 18.1777137,20.4145226 L18.321806,19.7581475 C18.3698369,19.5393547 18.4285406,19.3232334 18.4979187,19.109777 C18.6900426,18.5601268 18.6660275,18.189252 18.4258726,17.9971412 C18.2924532,17.890413 18.1403573,17.8370497 17.9695805,17.8370497 C17.8094773,17.8317133 17.7294268,17.7663433 17.7294268,17.6409377 C17.7294268,17.5155321 17.8094773,17.450162 17.9695805,17.4448256 C18.1029999,17.4448256 18.2470907,17.4608346 18.4018572,17.4928531 C18.5566237,17.5248715 18.7007145,17.5515532 18.8341338,17.5728988 C19.4051688,17.6956362 19.8481146,17.9264325 20.1629843,18.2652945 C20.4778541,18.6041564 20.5258843,19.1578006 20.3070765,19.9262436 C20.0989423,20.635986 20.0709246,21.2363231 20.2230227,21.7272727 C20.3751208,22.2182224 20.867431,22.487707 21.699968,22.5357347 C22.4311062,22.5677532 22.9994643,22.3623045 23.4050592,21.9193825 C23.8106542,21.4764605 24.0668156,20.8948006 24.1735511,20.1743854 C24.2482659,19.6727629 24.1388637,19.1124483 23.845341,18.4934248 C23.5518184,17.8744013 23.1595712,17.252719 22.6685879,16.6283591 C21.5532018,15.219547 21.1129244,14.2176512 21.3477426,13.6226415 C21.5825607,13.0276319 22.1002201,12.3752656 22.9007365,11.6655232 L22.9007365,11.6575186 C22.9274203,11.6308365 22.9701139,11.6174957 23.0288184,11.6174957 C23.1622378,11.6174957 23.2289465,11.6815317 23.2289465,11.8096055 C23.2289465,11.8629696 23.2049314,11.9136647 23.1569004,11.9616924 C22.7032745,12.4419692 22.6792594,12.924907 23.0848543,13.4105203 C23.3730402,13.7627233 23.6572192,14.1109188 23.9373999,14.4551172 C24.2175807,14.7993156 24.4777446,15.1395066 24.7178995,15.4757004 C24.7872775,15.561083 24.8593229,15.5637511 24.9340378,15.483705 C25.1581824,15.2008753 25.3849919,14.9193839 25.6144733,14.6392224 C25.8439546,14.3590609 26.0761009,14.0749014 26.310919,13.7867353 C26.4069809,13.6693343 26.5110465,13.6559934 26.6231188,13.7467124 C26.8152427,13.9068047 27.0033612,14.0682287 27.18748,14.2309891 C27.3715987,14.3937496 27.5597173,14.5551736 27.7518412,14.7152659 C27.7998722,14.7526207 27.8532391,14.7979795 27.9119436,14.8513436 C27.9706482,14.9047077 28,14.9607392 28,15.0194397 C28,15.0674674 27.9639773,15.1301692 27.8919308,15.2075472 C27.8198844,15.2849251 27.7545098,15.3556315 27.6958053,15.4196684 L26.8472622,16.4522584 Z M21.4037784,16.3642081 C20.3417601,16.8391486 19.3064412,16.8658302 18.2977906,16.4442539 C17.2784665,16.0173411 16.6834249,15.1902101 16.5126481,13.9628359 C16.3418713,12.7354617 16.7074349,11.6014918 17.60935,10.5608919 C18.511265,9.52029211 19.7680568,9 21.379763,9 C22.1375852,9 22.9007326,9.12540374 23.6692283,9.37621498 C24.437724,9.62702622 25.2142132,9.9605468 25.9987192,10.3767867 C26.5163864,10.6489436 27.0233725,10.6996387 27.5196926,10.5288736 C27.6264281,10.4861824 27.7064785,10.4568326 27.7598463,10.4408233 C27.8772554,10.4194777 27.9506349,10.4514957 27.9799872,10.5368782 C28.0093395,10.6222608 27.959975,10.7156465 27.8318924,10.8170383 C27.4476446,11.0945316 27.0607341,11.3680185 26.6711495,11.6375071 C26.2815649,11.9069958 25.8999912,12.185819 25.5264169,12.4739851 C25.3929975,12.5807133 25.2462384,12.5833815 25.0861351,12.4819897 C24.6058253,12.1297867 23.9427409,11.76158 23.096862,11.3773585 C22.2509831,10.993137 21.3957776,10.8010292 20.53122,10.8010292 C19.5172326,10.8010292 18.6887107,11.0891909 18.0456292,11.6655232 C17.4025478,12.2418554 17.0956878,12.9769347 17.12504,13.8707833 C17.1543923,14.7646319 17.5453052,15.4596888 18.2977906,15.9559748 C19.0502759,16.4522609 20.0135495,16.4709381 21.1876401,16.0120069 C21.283702,15.974652 21.3637525,15.9653134 21.4277938,15.9839909 C21.4918351,16.0026683 21.5358628,16.0346863 21.5598783,16.0800457 C21.5838938,16.1254052 21.5838938,16.1761003 21.5598783,16.2321326 C21.5358628,16.2881649 21.4838301,16.3321897 21.4037784,16.3642081 Z" id="AF"></path>
        </g>
    </g>
</svg>